<svg height="511pt" viewBox="-34 0 511 511.99988" width="511pt" xmlns="http://www.w3.org/2000/svg"><path d="m151.15625 306.5h70.34375v-271.328125c0-19.425781-15.746094-35.171875-35.171875-35.171875s-35.171875 15.746094-35.171875 35.171875zm0 0" fill="#fff35c"/><path d="m221.5 306.5h70.34375v-271.328125c0-19.425781-15.746094-35.171875-35.171875-35.171875s-35.171875 15.746094-35.171875 35.171875zm0 0" fill="#ffd236"/><path d="m261.441406 472.613281c-.261718 22.011719-18.316406 39.644531-40.328125 39.382813l-.28125-.003906c-22.011719-.257813-39.644531-18.316407-39.382812-40.328126l.582031-49.136718 79.992188.949218zm0 0" fill="#82a0d2"/><path d="m221.714844 511.988281c21.734375-.0625 39.46875-17.5625 39.726562-39.375l.582032-49.136719-40.308594-.480468zm0 0" fill="#5877a6"/><path d="m165.5 421.5v-59.140625h112v59.136719c0 16.570312-13.429688 30-30 30h-52c-16.570312.003906-30-13.429688-30-29.996094zm0 0" fill="#c9dff7"/><path d="m221.714844 451.5h25.785156c16.566406 0 30-13.433594 30-30v-59.140625h-55.785156zm0 0" fill="#9ebbdb"/><path d="m276.882812 376.359375h-110.765624c-6.085938 0-11.554688-3.71875-13.792969-9.378906l-23.734375-60.007813c-1.808594-4.570312-1.234375-9.734375 1.527344-13.796875 2.757812-4.0625 7.355468-6.496093 12.265624-6.496093h158.238282c4.910156 0 9.503906 2.433593 12.265625 6.496093s3.335937 9.226563 1.527343 13.796875l-23.734374 60.007813c-2.242188 5.660156-7.710938 9.378906-13.796876 9.378906zm0 0" fill="#dfeefa"/><path d="m300.617188 286.683594h-78.902344v89.675781h55.167968c6.085938 0 11.554688-3.714844 13.792969-9.375l23.734375-60.011719c1.808594-4.566406 1.238282-9.734375-1.523437-13.796875s-7.355469-6.492187-12.269531-6.492187zm0 0" fill="#c9dff7"/><g fill="#fff35c"><path d="m60.121094 173.070312h-44.621094c-8.285156 0-15-6.714843-15-15 0-8.285156 6.714844-15 15-15h44.621094c8.285156 0 15 6.714844 15 15 0 8.285157-6.714844 15-15 15zm0 0"/><path d="m89.273438 82.664062c-3.839844 0-7.679688-1.460937-10.609376-4.390624l-30.007812-30.007813c-5.855469-5.859375-5.855469-15.355469 0-21.214844 5.859375-5.859375 15.355469-5.859375 21.214844 0l30.007812 30.007813c5.859375 5.859375 5.859375 15.355468 0 21.214844-2.929687 2.929687-6.769531 4.390624-10.605468 4.390624zm0 0"/><path d="m59.136719 294.675781c-3.835938 0-7.675781-1.464843-10.605469-4.394531-5.855469-5.855469-5.855469-15.355469 0-21.210938l30.410156-30.410156c5.859375-5.859375 15.355469-5.859375 21.214844 0 5.855469 5.855469 5.855469 15.355469 0 21.210938l-30.410156 30.410156c-2.929688 2.929688-6.769532 4.394531-10.609375 4.394531zm0 0"/></g><path d="m427.5 174.261719h-44.625c-8.28125 0-15-6.714844-15-15 0-8.28125 6.71875-15 15-15h44.625c8.285156 0 15 6.71875 15 15 0 8.285156-6.714844 15-15 15zm0 0" fill="#ffd236"/><path d="m383.734375 294.675781c-3.835937 0-7.675781-1.464843-10.605469-4.394531l-30.007812-30.007812c-5.859375-5.859376-5.859375-15.355469 0-21.214844 5.859375-5.855469 15.355468-5.855469 21.210937 0l30.011719 30.011718c5.855469 5.855469 5.855469 15.355469 0 21.210938-2.929688 2.929688-6.769531 4.394531-10.609375 4.394531zm0 0" fill="#ffd236"/><path d="m353.453125 83.066406c-3.839844 0-7.679687-1.460937-10.605469-4.390625-5.859375-5.859375-5.859375-15.355469 0-21.214843l30.410156-30.410157c5.855469-5.859375 15.351563-5.859375 21.210938 0s5.859375 15.355469 0 21.214844l-30.410156 30.410156c-2.929688 2.925781-6.769532 4.390625-10.605469 4.390625zm0 0" fill="#ffd236"/></svg>