<svg height="512pt" viewBox="-124 0 512 512.001" width="512pt" xmlns="http://www.w3.org/2000/svg"><path d="m249.9375 281.261719h-13.691406v-221.875c0-32.746094-26.640625-59.386719-59.386719-59.386719-17.644531 0-33.507813 7.742188-44.390625 19.996094-10.890625-12.253906-26.75-19.996094-44.394531-19.996094-32.746094 0-59.386719 26.640625-59.386719 59.386719v221.875h-13.691406c-8.28125 0-14.996094 6.714843-14.996094 14.996093v56.964844c0 8.28125 6.714844 14.996094 14.996094 14.996094h11.660156v1.882812c0 26.011719 18.125 47.851563 42.40625 53.59375v24.902344c0 34.960938 28.445312 63.402344 63.40625 63.402344 34.957031 0 63.402344-28.441406 63.402344-63.402344v-24.902344c24.28125-5.742187 42.40625-27.582031 42.40625-53.59375v-1.882812h11.660156c8.28125 0 14.996094-6.714844 14.996094-14.996094v-56.964844c0-8.28125-6.714844-14.996093-14.996094-14.996093zm-219.945312 56.964843v-26.972656h204.949218v26.972656zm146.867187-308.234374c16.207031 0 29.394531 13.1875 29.394531 29.394531v221.875h-58.792968v-221.875c0-16.207031 13.1875-29.394531 29.398437-29.394531zm-118.179687 29.394531c0-16.207031 13.1875-29.394531 29.394531-29.394531 16.210937 0 29.398437 13.1875 29.398437 29.394531v221.875h-58.792968zm107.199218 389.210937c0 18.421875-14.988281 33.410156-33.410156 33.410156-18.425781 0-33.414062-14.988281-33.414062-33.410156v-23.414062h66.824218zm42.410156-78.496094c0 13.832032-11.257812 25.089844-25.09375 25.089844h-101.457031c-13.835937 0-25.09375-11.257812-25.09375-25.089844v-1.882812h151.644531zm0 0"/></svg>