<?xml version="1.0" encoding="utf-8"?>
<!-- Generator: Adobe Illustrator 23.1.0, SVG Export Plug-In . SVG Version: 6.00 Build 0)  -->
<svg version="1.1" id="Layer_1" xmlns="http://www.w3.org/2000/svg" xmlns:xlink="http://www.w3.org/1999/xlink" x="0px" y="0px"
	 viewBox="0 0 527 469" style="enable-background:new 0 0 527 469;" xml:space="preserve">
<style type="text/css">
	.st0{fill:#CBC2BE;}
	.st1{fill:#FDF9F4;}
	.st2{fill:#767676;}
	.st3{fill:#B5A9A3;}
	.st4{fill:#664A3B;}
	.st5{fill:#87BE00;}
	.st6{fill:#ADD250;}
</style>
<g>
	<g>
		<path class="st0" d="M460.87,275.99c-6.15-17.49-0.2-36.58,3.29-54.79c8.65-45.07,1.45-93.02-20.06-133.55
			C392.39,32.49,310.07,12.73,235.5,25.2C160.94,37.66,93.66,78.78,37.54,129.43c11.24,23.64,7.43,51.55,0.99,76.92
			c-6.44,25.37-15.34,50.85-13.55,76.97c1.56,22.73,11.19,44.45,11.6,67.23C37,373.32,22.78,399.6,0,399.79
			c40.68,15.12,113.07,23.81,156.47,23.35c140.24-1.5,223.01-4.01,348.13-67.36C490.13,353.16,465.74,289.86,460.87,275.99z"/>
		<path class="st0" d="M460.87,275.99c-6.15-17.49-0.2-36.58,3.29-54.79c7.03-36.61,3.59-75.13-9.48-110.03
			c-29.57,50.18-90.57,68.84-149.62,72.9c-42.7,2.94-87.27,3.96-129.86,0.07c-46.12-4.22-88.19-18.72-131.37-32.96
			c2.46,18.06-0.75,37.25-5.3,55.18c-6.44,25.37-15.34,50.85-13.55,76.97c1.56,22.73,11.19,44.45,11.6,67.23
			C37,373.32,22.78,399.6,0,399.79c40.68,15.12,113.07,23.81,156.47,23.35c140.24-1.5,223.01-4.01,348.13-67.36
			C490.13,353.16,465.74,289.86,460.87,275.99z"/>
		<path class="st1" d="M401.1,157.86c-102.25,22.16-206.76,33.88-311.38,34.92c2.18,51.3,4.35,102.61,6.53,153.91
			c99.63-25.09,205.23-50.11,303.57-20.38C408.91,270.36,417.87,212.01,401.1,157.86z"/>
		<g>
			<path class="st2" d="M152.14,289.34c2.73-0.86,5.25-2.08,7.56-3.68c2.31-1.6,3.98-3.23,4.99-4.9l-2.17-6.94l-12.24,3.83
				l-2.43-7.76l21.85-6.84l5.77,18.43c-1.8,3.56-4.59,6.78-8.36,9.65c-3.78,2.88-7.99,5.04-12.67,6.51
				c-8.16,2.55-15.14,2.27-20.94-0.88c-5.81-3.15-10.01-8.87-12.61-17.17c-2.59-8.26-2.36-15.27,0.67-21.05
				c3.04-5.79,8.69-9.97,16.97-12.56c11.76-3.69,20.61-1.67,26.54,6.03l-8.76,5.95c-1.84-2.21-4.08-3.62-6.72-4.23
				c-2.64-0.6-5.46-0.43-8.48,0.51c-4.93,1.55-8.21,4.21-9.83,8.01c-1.63,3.78-1.57,8.47,0.17,14.05c1.78,5.67,4.47,9.63,8.09,11.9
				C143.14,290.46,147.34,290.84,152.14,289.34z"/>
			<path class="st2" d="M187.58,286.48l-9.23-29.47c-0.66-2.1-1.25-3.86-1.75-5.25c-0.5-1.4-0.96-2.62-1.37-3.69l9.53-2.99
				c0.21,0.4,0.71,1.66,1.5,3.8c0.8,2.14,1.31,3.56,1.53,4.27l0.15-0.05c0.12-3.01,0.4-5.18,0.8-6.52c0.42-1.35,1.06-2.44,1.94-3.31
				c0.87-0.86,2.09-1.54,3.66-2.03c1.28-0.4,2.37-0.55,3.26-0.44l2.62,8.37c-1.73,0.15-3.21,0.42-4.44,0.8
				c-2.49,0.78-4.12,2.4-4.87,4.85c-0.76,2.46-0.51,5.65,0.73,9.62l5.92,18.9L187.58,286.48z"/>
			<path class="st2" d="M246.48,246.86c1.96,6.24,1.76,11.68-0.59,16.3c-2.36,4.63-6.59,7.9-12.71,9.82
				c-6,1.88-11.26,1.57-15.8-0.91c-4.53-2.49-7.77-6.84-9.71-13.06c-1.94-6.19-1.76-11.59,0.55-16.21
				c2.31-4.62,6.53-7.89,12.68-9.81c6.28-1.97,11.62-1.76,16,0.63C241.27,236.02,244.47,240.44,246.48,246.86z M236.02,250.14
				c-1.43-4.58-3.22-7.66-5.36-9.26c-2.14-1.6-4.63-1.95-7.48-1.06c-6.07,1.9-7.75,7.2-5.03,15.91c1.35,4.29,3.11,7.33,5.3,9.11
				c2.19,1.78,4.68,2.23,7.48,1.35C237.07,264.26,238.77,258.92,236.02,250.14z"/>
			<path class="st2" d="M257.83,222.21l6.76,21.59c2.12,6.77,5.46,9.43,10,8.01c2.43-0.76,4.05-2.41,4.89-4.95
				c0.83-2.54,0.74-5.43-0.28-8.69l-6.46-20.63l10-3.13l9.36,29.89c1.02,3.28,2.02,6.11,2.98,8.52l-9.54,2.99
				c-1.36-3.33-2.3-5.83-2.82-7.52l-0.18,0.06c-0.42,3.33-1.44,5.99-3.08,7.96c-1.63,1.97-3.86,3.4-6.69,4.28
				c-4.08,1.28-7.6,1.01-10.57-0.81c-2.97-1.82-5.21-5.15-6.72-9.99l-7.66-24.44L257.83,222.21z"/>
			<path class="st2" d="M329.91,241.91l-6.76-21.6c-2.12-6.76-5.46-9.42-10.04-7.99c-2.42,0.76-4.04,2.41-4.88,4.94
				c-0.83,2.54-0.74,5.44,0.28,8.68l6.46,20.64l-10,3.13l-9.36-29.89c-0.65-2.06-1.21-3.75-1.68-5.04c-0.47-1.3-0.91-2.46-1.3-3.48
				l9.53-2.98c0.22,0.42,0.69,1.59,1.42,3.51c0.73,1.92,1.21,3.25,1.44,3.99l0.14-0.05c0.43-3.37,1.46-6.04,3.08-8
				c1.62-1.97,3.84-3.39,6.67-4.28c4.08-1.28,7.61-1,10.58,0.84c2.97,1.83,5.21,5.16,6.73,10l7.66,24.44L329.91,241.91z"/>
			<path class="st2" d="M374.43,227.97c-0.21-0.33-0.6-1.19-1.18-2.58c-0.58-1.39-1.02-2.56-1.32-3.51l-0.14,0.04
				c-0.7,5.32-4.08,8.93-10.13,10.83c-4.48,1.4-8.49,0.74-12.03-2c-3.55-2.73-6.29-7.24-8.26-13.53c-2-6.37-2.26-11.71-0.77-15.99
				c1.49-4.28,4.58-7.16,9.31-8.64c2.73-0.85,5.26-1.02,7.6-0.5c2.34,0.52,4.39,1.74,6.16,3.66l0.07-0.02l-2.05-6.31l-4.4-14.06
				l9.99-3.13l13.91,44.41c0.74,2.37,1.71,5.14,2.92,8.3L374.43,227.97z M367.87,208.65c-1.3-4.15-2.99-7.12-5.08-8.93
				c-2.09-1.81-4.48-2.28-7.19-1.44c-2.68,0.84-4.33,2.55-4.95,5.13c-0.63,2.57-0.24,6.1,1.15,10.55
				c2.73,8.73,6.72,12.28,11.97,10.63c2.63-0.82,4.31-2.62,5.03-5.38C369.51,216.44,369.21,212.92,367.87,208.65z"/>
		</g>
		<path class="st3" d="M10.6,182.32c52.54,35.16,117.54,45.01,180.38,47.08c56.8,1.87,114.31-1.99,168.72-18.71
			c54.4-16.72,140.06-83.88,140.06-83.88c-19.24-13.8-39.67-29.13-58.9-42.93c-48.39,54.38-120.71,82.93-192.68,87.14
			c-71.97,4.21-143.76-14.12-210.49-41.88C28.64,146.87,19.62,164.59,10.6,182.32z"/>
		<path class="st4" d="M275.48,3.29c11.14-3.1,20.77,9.48,32.33,9.6c42.31,0.47,40.3,20.04,50.49,22.64
			c10.18,2.6,21.35,1.93,30.61,6.9c8.7,4.67,5.21,28.59,23.01,30.77c8.61,1.05,13.09,11.18,7.52,17.83
			c-7.18,8.57-19.34-0.11-29.36,1.95c-11.51,2.36-16.4,17.84-27.8,20.67c-6.58,1.63-13.39-1.5-20.17-1.35
			c-10.41,0.24-18.87,7.92-27.45,13.81c-7.02,4.81-16.38,8.5-24.05,6.2c-6.03-1.81-12.45-2.09-18.67-1.18
			c-13.2,1.91-26.13,5.68-38.28,11.15c-3.95,1.78-8.36,0.38-11.13-2.95c-2.5-3-6.93-5-10.95-4.47c-7.03,0.93-12.6,6.11-18.66,9.79
			c-6.06,3.68-14.63,5.65-19.71,0.71c-0.02-8.6-11.13-12.74-19.6-11.21c-8.46,1.52-19.74,12.38-25.03,5.61
			c-19.8-25.34-29.62-5.7-52.73-26.92c-11.35-10.43-1.37-34.36,14-35.45c-8.77-13.06,0.25-33.9,15.77-36.45
			c9.42-1.55,20.61,2.23,27.7-4.16c6.36-5.73,5.87-17.17,13.25-21.52c10.21-6.02,21.78,7.8,33.61,7.08
			c14.29-0.87,21.06-21.88,35.37-22.31c12.55-0.38,20.84,15.62,33.39,15.71C258.81,15.78,265.95,5.95,275.48,3.29z"/>
	</g>
	<g>
		<path class="st4" d="M358.59,447.19c7.55-8.5,20.56-20.1,29.54-27.08c8.98-6.98,19.5-12.36,30.8-13.6
			c12.32-1.35,24.74,2.31,35.78,7.92c16.25,8.26,30,20.59,43.54,32.78c-19.34,13.27-42.48,20.55-65.89,21.98
			C392.26,471.64,358.59,447.19,358.59,447.19z"/>
		<path class="st5" d="M510.18,301.02c-2.66,7.17-7.19,13.85-13.69,17.88c-10.83,6.7-24.63,4.94-37.26,3.32
			c-12.63-1.62-26.78-2.45-36.71,5.51c2.43-16.11,5.28-33.14,15.87-45.52c10.33-12.08,26.38-17.64,42.01-20.54
			c15.63-2.91,31.75-3.72,46.83-8.74c-6.43,5.78-9.53,14.38-11.36,22.82C514.03,284.2,513.19,292.92,510.18,301.02z"/>
		<path class="st6" d="M460.62,304.88c-11.93,5.16-23.35,11.49-34.04,18.88c17.88-24.34,55.73-26.11,74.58-49.71
			c-2.56,8.41-9.2,15.05-16.66,19.7C477.04,298.41,468.69,301.39,460.62,304.88z"/>
		<path class="st6" d="M454.85,288.08c-7.05,9.92-14.11,19.85-21.16,29.77C444.08,311.12,450.42,299.64,454.85,288.08z"/>
		<path class="st6" d="M475.82,276.57c-3.73,9.24-9.19,17.78-16.01,25.05l6.94-2.71c1.24-1.19,2.83-4.51,4.71-7.71
			C474.12,286.69,476.66,281.73,475.82,276.57z"/>
		<path class="st6" d="M465.51,299.59c-0.5-0.02-1.06,0.19-1.3,0.63c-0.49,0.91,0.89,1.65,1.92,1.78
			c5.45,0.69,10.97,1.38,16.41,0.64c5.44-0.74,11.71-2.21,15.06-6.56C485.45,299.95,476.33,300.04,465.51,299.59z"/>
		<path class="st6" d="M486.69,310.23c-13.29,1.2-26.75,0.56-39.87-1.89l-1.34,3.85C456.74,315.49,475.44,313.5,486.69,310.23z"/>
		<path class="st5" d="M419.42,284.63c-7.94-15.02-23.88-24.68-40.5-28.21c-16.62-3.53-33.94-1.6-50.56,1.93
			c7.97,2.5,13.68,9.72,16.82,17.46c3.14,7.74,4.16,16.14,5.86,24.32c1.7,8.18,4.24,16.5,9.77,22.76
			c7.83,8.86,20.55,12.1,32.35,11.2c11.8-0.9,22.98-5.39,33.95-9.82C426.51,310.71,425.77,296.63,419.42,284.63z"/>
		<path class="st6" d="M386.28,293.7c-7.27-9.02-13.26-20.37-24.22-24.15c10.46,9.35,16.91,22.26,25.46,33.37
			c8.55,11.12,20.93,21.12,34.93,20.3C409.38,314.65,396.08,305.87,386.28,293.7z"/>
		<path class="st6" d="M398.32,280.38c-0.64,6.11-1.29,12.28-0.61,18.39c0.67,6.11,2.78,12.23,6.99,16.71
			c-0.21-4.22-1.04-8.38-1.87-12.52C401.33,295.43,399.83,287.91,398.32,280.38z"/>
		<path class="st6" d="M381.88,295.25c0.75,1.59,3.46,0.71,3.99-0.98c0.52-1.69-3.31-23.32-6.34-25.26
			C380.31,277.76,381.1,286.5,381.88,295.25z"/>
		<path class="st6" d="M383.97,298.35c0.91-0.12,1.94-0.35,2.4-1.16c0.51-0.91-0.05-2.11-0.92-2.67c-0.87-0.57-1.96-0.66-2.99-0.73
			c-7.07-0.51-14.14-1.03-21.21-1.54C367.64,297.12,375.98,299.36,383.97,298.35z"/>
		<path class="st6" d="M369.59,308.4c9.58,5.56,21.38,7.15,32.09,4.34c-0.33-1.02-0.66-2.04-0.99-3.05
			C390.32,309.26,379.96,308.82,369.59,308.4z"/>
		<path class="st5" d="M434.45,416.04c5.68-1.94,6.76-9.36,6.87-15.36c0.27-14.82,0.54-29.7-1.4-44.39
			c-1.94-14.69-6.19-29.3-14.31-41.7c-3.38,3.07-4.68,7.91-4.59,12.48s1.4,9.02,2.46,13.46c5.42,22.83,4.33,47.17-3.12,69.42
			C424.24,413.72,429.34,417.79,434.45,416.04z"/>
	</g>
</g>
</svg>
