<?xml version="1.0" encoding="utf-8"?>
<!-- Generator: Adobe Illustrator 23.1.0, SVG Export Plug-In . SVG Version: 6.00 Build 0)  -->
<svg version="1.1" id="Layer_1" xmlns="http://www.w3.org/2000/svg" xmlns:xlink="http://www.w3.org/1999/xlink" x="0px" y="0px"
	 viewBox="0 0 512 405" style="enable-background:new 0 0 512 405;" xml:space="preserve">
<style type="text/css">
	.st0{fill:#E6E2E0;}
	.st1{fill:#664A3B;}
	.st2{fill:#87BE00;}
	.st3{fill:#ADD250;}
	.st4{fill:#776056;}
	.st5{fill:#AA9B95;}
	.st6{fill:#A3948D;}
</style>
<g>
	<path class="st0" d="M158.7,147.28c0,0-152.57,24.64-154.95,243.72h220.27C224.01,391,84.12,242.16,158.7,147.28z"/>
	<g>
		<path class="st1" d="M47.1,390.68c3.76-4.24,10.24-10.01,14.72-13.49c4.47-3.48,9.72-6.16,15.35-6.78
			c6.14-0.67,12.32,1.15,17.83,3.95c8.09,4.11,14.95,10.26,21.7,16.33c-9.64,6.61-21.17,10.24-32.83,10.95
			C63.87,402.86,47.1,390.68,47.1,390.68z"/>
		<path class="st2" d="M122.62,317.85c-1.33,3.57-3.59,6.9-6.82,8.91c-5.4,3.34-12.28,2.46-18.57,1.65
			c-6.29-0.81-13.34-1.22-18.29,2.75c1.21-8.03,2.63-16.51,7.91-22.68c5.14-6.02,13.14-8.79,20.93-10.24
			c7.79-1.45,15.82-1.85,23.33-4.36c-3.2,2.88-4.75,7.17-5.66,11.37C124.54,309.47,124.12,313.82,122.62,317.85z"/>
		<path class="st3" d="M97.93,319.78c-5.95,2.57-11.63,5.72-16.96,9.41c8.9-12.13,27.76-13.01,37.15-24.77
			c-1.27,4.19-4.58,7.5-8.3,9.82C106.11,316.55,101.95,318.04,97.93,319.78z"/>
		<path class="st3" d="M95.51,310.73c-3.51,4.94-7.03,9.89-10.55,14.83C90.15,322.21,93.3,316.5,95.51,310.73z"/>
		<path class="st3" d="M105.5,305.67c-1.86,4.6-4.57,8.86-7.97,12.48c1.34-0.97,1.64,0.12,2.84-1
			C101.06,316.49,105.5,311.91,105.5,305.67z"/>
		<path class="st3" d="M100.37,317.14c-0.25,0.03-0.54,0.09-0.65,0.31c-0.25,0.45,0.44,0.83,0.96,0.89
			c2.71,0.34,5.46,0.69,8.17,0.32c2.71-0.37,5.42-1.53,7.09-3.7C110.75,315.69,105.56,316.42,100.37,317.14z"/>
		<path class="st3" d="M110.91,322.44c-6.62,0.6-13.32,0.28-19.86-0.94c-0.06,1.33,1.39,2.19,2.67,2.57
			C99.33,325.71,105.31,324.08,110.91,322.44z"/>
		<path class="st2" d="M77.4,309.69c-3.96-7.48-11.9-12.29-20.18-14.05c-8.28-1.76-16.91-0.8-25.19,0.96
			c3.97,1.25,6.82,4.85,8.39,8.7c1.56,3.86,2.08,8.04,2.92,12.12c0.85,4.07,2.11,8.22,4.87,11.34c3.9,4.42,10.24,6.03,16.12,5.58
			c5.88-0.45,11.46-2.68,16.92-4.89C80.93,322.68,80.56,315.67,77.4,309.69z"/>
		<path class="st3" d="M60.89,314.2c-3.62-4.49-6.61-10.15-12.06-12.03c5.2,4.66,8.43,11.09,12.68,16.63
			c4.26,5.54,10.43,10.52,17.41,10.12C72.4,324.65,65.78,320.27,60.89,314.2z"/>
		<path class="st3" d="M66.89,307.57c-0.32,3.05-0.64,6.12-0.3,9.16c0.33,3.04,1.39,6.1,3.48,8.33c-0.11-2.1-0.52-4.17-0.93-6.23
			C68.39,315.07,67.64,311.32,66.89,307.57z"/>
		<path class="st3" d="M58.7,314.98c0.38,0.8,1.73,0.35,1.99-0.48c0.26-0.84-1.64-11.62-3.16-12.59
			C57.91,306.26,58.31,310.62,58.7,314.98z"/>
		<path class="st3" d="M59.74,316.52c0.46-0.06,0.97-0.18,1.19-0.58c0.25-0.45-0.03-1.05-0.46-1.33c-0.44-0.28-0.98-0.45-1.49-0.36
			c-4.26,0.72-6.41-0.15-10.57-0.77C51.6,315.91,55.76,317.03,59.74,316.52z"/>
		<path class="st3" d="M52.57,321.53c4.77,2.77,10.65,3.57,15.99,2.16c-0.17-0.51-0.33-1.01-0.49-1.52
			C62.9,321.96,57.74,321.74,52.57,321.53z"/>
		<path class="st2" d="M84.89,375.16c2.83-0.97,3.37-4.66,3.43-7.65c0.13-7.38,0.26-14.8-0.7-22.12c-0.97-7.32-3.08-14.6-7.13-20.78
			c-1.69,1.53-2.33,3.94-2.29,6.22c0.05,2.28,0.7,4.49,1.22,6.71c2.7,11.37,2.15,23.5-1.55,34.58
			C79.8,374,82.34,376.03,84.89,375.16z"/>
	</g>
	<g>
		<polygon class="st4" points="185.88,94.82 158.7,173.99 217.54,146.82 215.44,137.18 		"/>
		<path class="st4" d="M333.49,76.23c-6.07-12.73-0.12-29.99,14.56-40.24c14.68-10.25,32.93-9.88,42.79,0.22l14.42-10.06
			C390.88,9.7,362.61,8.67,340,24.45c-22.61,15.77-31.4,42.67-20.93,61.84L333.49,76.23z"/>
		<polygon class="st5" points="382.35,168.1 214.36,135.74 206.9,151.6 406.01,210.87 		"/>
		<g>
			<path class="st4" d="M467.6,138.2l-58.41-89.4l2.63-4.79c0.44-0.79,10.86-19.55,27.03-30.83c17.74-12.38,36.37-11.58,52.48,2.24
				c40.8,35.03-13.6,109.18-15.94,112.31L467.6,138.2z M430.56,48.26l37.54,57.45c11.83-19.4,31.84-58.9,11.37-76.49
				c-9.87-8.47-19.19-8.82-30.22-1.12C440.85,33.97,434.14,42.91,430.56,48.26z"/>
		</g>
		
			<rect x="350.36" y="38.9" transform="matrix(0.8201 -0.5722 0.5722 0.8201 2.3851 257.0511)" class="st6" width="119.25" height="171.66"/>
		
			<rect x="305.81" y="52.91" transform="matrix(0.82 -0.5723 0.5723 0.82 30.9177 220.093)" class="st6" width="119.25" height="15.95"/>
		
			<rect x="392.3" y="172.31" transform="matrix(0.8202 -0.5721 0.5721 0.8202 -24.4853 291.7834)" class="st4" width="119.25" height="25.06"/>
	</g>
</g>
</svg>
