<?xml version="1.0" encoding="utf-8"?>
<!-- Generator: Adobe Illustrator 23.1.0, SVG Export Plug-In . SVG Version: 6.00 Build 0)  -->
<svg version="1.1" id="Layer_1" xmlns="http://www.w3.org/2000/svg" xmlns:xlink="http://www.w3.org/1999/xlink" x="0px" y="0px"
	 viewBox="0 0 275 512" style="enable-background:new 0 0 275 512;" xml:space="preserve">
<style type="text/css">
	.st0{fill:#87BE00;}
	.st1{fill:#ADD250;}
	.st2{fill:#664A3B;}
	.st3{fill:#EC7832;}
	.st4{fill:#CD5A24;}
</style>
<g>
	<g>
		<path class="st0" d="M123.52,252.36c3.71-0.43,18.5-0.25,22.2,0c-4.83-25.25-7.27-50.82-8.23-73.76
			c-1.39-33.34-5.87-86.62-0.41-130.39l-2.37,8.54c-7.99,31.66-8.57,66.57-9.57,99.21C123.52,209.69,124.08,219.89,123.52,252.36z"
			/>
		<path class="st0" d="M143,106.44c-5.17,4.3-10.46,8.86-14.36,14.25c0.96,4.89,1.41,9.74,1.6,14.61
			c17.65-23,37.72-44.15,59.8-62.94C172.94,81.52,157.9,94.03,143,106.44z"/>
		<path class="st0" d="M133,198.21c-1.11-6.76,0.92-13.76,4.49-19.61c3.57-5.85,8.59-10.67,13.82-15.08
			c12.41-10.47,27.04-19.27,43.2-20.79C170.17,156.25,148.95,175.38,133,198.21z"/>
		<path class="st0" d="M132.69,193.42c1.13-7.88,2.8-11.66-2.84-17.28c-5.64-5.61-23.91-22.02-31.21-25.19
			c-7.3-3.17-9.12-0.22-15.72-4.67C100.8,159.61,117.35,177.26,132.69,193.42z"/>
		<path class="st0" d="M88.31,65.79c14.46,20.28,27.97,41.24,40.48,62.77c2.18-4.02,2.26-8.92,1.08-13.34
			c-1.18-4.42-3.53-8.43-6.03-12.25C114.41,88.54,102.3,75.87,88.31,65.79z"/>
		<path class="st0" d="M152.79,33.68c9.77-7.07,22.02-10.23,31.44-17.77c0.54,13.04-4.81,26.22-14.29,35.2
			c-9.48,8.98-22.92,13.61-35.92,12.37C136.17,51.64,143.04,40.73,152.79,33.68z"/>
		<path class="st1" d="M173.35,27.12c-6.7,15.26-19.84,27.57-35.51,33.25C151.33,51.25,163.37,39.98,173.35,27.12z"/>
		<path class="st1" d="M158.51,49.15c3.8-1.39,7.73-2.86,10.58-5.73c-3.33,6.48-11.3,10.2-18.41,8.6
			C153.29,51.07,155.9,50.11,158.51,49.15z"/>
		<path class="st1" d="M156.48,34.44c-1.8,7.59-3.92,11.94-6.86,17.57c2.65-1.16,2.34-0.56,3.63-3.13
			C154.94,45.54,157.15,40.61,156.48,34.44z"/>
		<path class="st0" d="M133.73,61.9c0,0,11.35-25.75-0.04-42.61c-6.52-9.65-18.36-14.66-29.9-16.23c1.23,8.06,2.46,16.13,3.69,24.2
			c0.79,5.18,1.51,10.43,3.44,15.3C116.19,55.82,133.73,61.9,133.73,61.9z"/>
		<path class="st1" d="M115.45,15.2c6.33,12.46,12.28,25.61,15.8,39.14c1.75-9.96-3.73-18.86-8.19-27.95
			C120.05,20.25,115.45,15.57,115.45,15.2z"/>
		<path class="st1" d="M130.52,22.89c2.22,5.47,1.78,16.37-0.23,21.92c-0.4,1.11-0.94-1.38-0.94-1.38
			C130.7,36.69,131.1,29.75,130.52,22.89z"/>
		<path class="st1" d="M129.59,43.18c-5.93-4.56-10.66-8.19-16.58-12.75c1.78,3.69,10.91,11.91,16.5,14.81L129.59,43.18z"/>
		<path class="st0" d="M169.56,107.03c16.02,0.92,31.11-9.18,40.29-22.34c9.19-13.16,13.47-29.04,17.11-44.67
			c-15.45-0.73-31.77-1.27-45.38,6.06c-10.78,5.81-18.65,16.06-23.79,27.18c-5.15,11.12-7.84,23.18-10.5,35.14
			C153.48,103.95,161.96,106.59,169.56,107.03z"/>
		<path class="st1" d="M185.11,77.59c-0.22,0.83-0.49,1.65-0.8,2.45c10.94-0.61,19.55-3.66,26.02-12.55
			C201.81,73.61,194.24,75.81,185.11,77.59z"/>
		<path class="st1" d="M178.88,95.42c-3.63-0.39-15.36-0.81-15.7-0.69c2.66-2.83,14.33-3.84,21.51-3.33
			c4.14,0.29,10.51-0.21,13.79-2.44C195.04,93.74,189.16,96.52,178.88,95.42z"/>
		<path class="st1" d="M163.05,95.92c5.23-2.12,8.35-7.66,9.48-13.18c1.13-5.52,0.69-11.23,1-16.86
			C172.15,76.47,168.56,86.77,163.05,95.92z"/>
		<path class="st1" d="M182.49,74.47c-0.68,2.64-2.45,7.74-3.83,10.01c4.45-2.41,6.68-6.04,7.54-12.12c0.77-5.47,1.55-10.21,1-18.16
			C185.66,62.09,184.41,66.91,182.49,74.47z"/>
		<path class="st0" d="M73.66,91.41c11.12,5.33,24.04,4.82,36.36,4.19c3.03-15.04,5.92-31.33-0.64-45.2
			c-5.3-11.2-16.1-18.97-27.59-23.61c-11.48-4.64-23.84-6.6-35.94-9.28c-0.39,13.95-0.58,28.15,3.17,41.59
			C52.78,72.56,61.07,85.38,73.66,91.41z"/>
		<path class="st1" d="M96.45,74.25c-0.2,1.98-0.19,4.39,1.51,5.42c2.99-9.56,3.3-19.93,0.91-29.65
			C98.06,58.09,97.25,66.17,96.45,74.25z"/>
		<path class="st1" d="M94.37,77.03c-10.31,0.99-20.81,0.04-30.75-2.87c3.55,3.59,9.64,5.49,13.06,6.3
			c3.42,0.81,17.29,1.02,22.89,0.79c-0.06-0.18-0.09-0.32-0.13-0.48C97.73,79.92,95.75,78.47,94.37,77.03z"/>
		<path class="st1" d="M86.81,65.68c-9.29,0.19-18.62-1.11-27.44-4.05c3.42,3.72,9.43,5.85,12.82,6.78
			c2.58,0.71,11.21,1.3,17.67,1.53C88.63,68.69,87.62,67.24,86.81,65.68z"/>
		<path class="st1" d="M105.81,88.13c-8.31-12.91-32.03-42.33-44-54.91C68.76,48.98,91.53,77.59,105.81,88.13z"/>
		<path class="st1" d="M87.88,41.01c-2.38,4.68-1.56,14.06-1.56,19.34c0,6.78,2.61,9.21,3.7,10.37
			C89.31,60.81,88.6,50.91,87.88,41.01z"/>
		<path class="st1" d="M80.64,57.77c-0.63-8.7-1.25-17.4-1.88-26.09c-1.23,5.05-1.45,10.49-1.47,15.76
			c-0.01,2.7,0.37,5.46,1.15,7.98C79.66,56.17,79.69,56.77,80.64,57.77z"/>
		<path class="st1" d="M80.65,57.86c-0.06-0.09-0.14-0.17-0.2-0.26c0.05,0.12,0.1,0.24,0.15,0.36c-0.11-0.24-0.25-0.45-0.39-0.67
			c-0.23-0.35-0.39-0.72-0.59-1.08c-8.07-2.86-16.14-5.71-24.22-8.57c7.28,6.96,16.84,11.45,26.83,12.71
			C81.66,59.56,81.12,58.74,80.65,57.86z"/>
		<path class="st0" d="M234.8,103.96c12.53,0.77,25.7,5.14,37.2,0.07c-13.83,17.18-14.71,42.97-30.96,57.87
			c-9.82,9.01-24.05,12.35-37.24,10.42c-13.19-1.92-25.33-8.69-35.29-17.54c3.03-14.88,11.59-28.57,23.64-37.81
			C204.2,107.75,219.64,103.03,234.8,103.96z"/>
		<path class="st1" d="M253.49,113.07c-12.4,15.23-39.2,31.19-60.53,38.28c-5.61,1.86-11.62,2.08-17.38,0.75l-0.08-0.02
			C202.1,146.48,231.07,128.46,253.49,113.07z"/>
		<path class="st1" d="M210.13,49.03c-6.73,15.64-25.31,35.3-41.42,46.27c-4.24,2.88-9.21,4.49-14.33,4.74l-0.07,0
			C175.17,89.07,195.09,67.17,210.13,49.03z"/>
		<path class="st1" d="M213.37,138.79c5.68-7.13,10.6-14.86,14.67-23.01c0.09,4.97-2.14,11.21-4.56,15.56
			C221.07,135.68,218.3,138.05,213.37,138.79z"/>
		<path class="st1" d="M188.54,150.49c5.12-0.81,8.59-5.84,9.86-10.86c1.27-5.03,2.66-9.18,1.85-15.43
			C198.07,133.6,194.07,142.58,188.54,150.49z"/>
		<path class="st1" d="M204.49,144.24c5.09-1.73,7.76-7.47,8.19-12.83c0.42-5.36,1.11-9.85-0.81-16.09
			C211.27,125.3,208.75,135.18,204.49,144.24z"/>
		<path class="st1" d="M249.06,133.84c-10.71,1.41-17.57,0.05-26.06,2.09c-0.83,0.2-1.7,0.44-2.32,1.03
			c-0.62,0.59-2.28,1.65-1.74,2.32C228.76,139.4,239.89,138.79,249.06,133.84z"/>
		<path class="st1" d="M206.31,141.75c-0.53,0.88-1.13,1.73-1.82,2.5c10.16,5.45,17.87,8.44,32.44,7.73
			C225.64,148.6,216.36,146.53,206.31,141.75z"/>
		<path class="st1" d="M192.21,149.23c-0.7-0.08-1.57-0.01-1.82,0.64c-0.23,0.61,0.28,1.23,0.76,1.67
			c8.4,7.69,19.99,11.79,31.36,11.09c-4.39-1.43-10.71-2.99-15.33-6.16C202.55,153.31,197.77,149.87,192.21,149.23z"/>
		<path class="st0" d="M40.84,152.47c8.83,6.47,19.74,9.72,30.66,10.54c10.92,0.82,21.89-0.67,32.59-2.96
			c-0.28-10.86-0.87-21.86-4.11-32.24c-3.24-10.38-9.43-20.2-18.76-25.78C61.6,90.28,35.25,100.24,14.2,91.31
			c0.97,11.43,2.7,22.91,6.77,33.64C25.04,135.68,31.58,145.69,40.84,152.47z"/>
		<path class="st1" d="M56.22,129.45c9.28,6.86,23.27,16.95,34.18,23.47c2.34,1.4,4.89,2.36,7.57,2.87l0.04,0.01
			c-19.81-17.98-36.85-27.24-65.16-50.77C38.1,115.11,47.08,122.69,56.22,129.45z"/>
		<path class="st1" d="M88.59,149.42c-2.77-10.83-6.59-22.71-6.9-33.88c-1.8,10.74,0.01,21.71,1.92,32.44
			C84.59,148.14,87.71,149.12,88.59,149.42z"/>
		<path class="st1" d="M64.22,107.74c-1.89,6.85-0.85,14.79,1.79,26.47c1.84,1.09,4.28,1.26,4.28,1.26
			C66.06,125.06,66.15,118.29,64.22,107.74z"/>
		<path class="st1" d="M48.18,103.46c-1.12,5.77,1.8,16.98,2.11,17.8c0.99,2.66,1.18,0.68,3.68,1.95
			C52.04,116.63,50.12,110.05,48.18,103.46z"/>
		<path class="st1" d="M49.9,121.35c-8.92,0.77-14.78,1.64-24.63-0.55c7.86,5.25,18.06,5.55,27.39,4.07
			c0.12-0.02,0.24-0.09,0.36-0.12C51.82,123.75,50.77,122.61,49.9,121.35z"/>
		<path class="st1" d="M63.64,135.35c-8.93,1.12-17.98,0.05-26.92-1.02c5.05,3.31,11.06,4.93,17.06,5.53
			c6.01,0.6,12.07,0.24,18.09-0.12c0.62-1.78-0.87-3.71-2.65-4.33C67.44,134.79,65.51,135.11,63.64,135.35z"/>
		<path class="st1" d="M86.98,150.42c0.62-0.18,1.3-0.43,1.61-1c0.39-0.77-0.14-1.76-0.91-2.16c-0.77-0.4-1.7-0.5-2.55-0.32
			c-14.08,2.92-24.6,2.05-36.46,1.75C60.77,153.5,74.49,154.12,86.98,150.42z"/>
		<path class="st2" d="M34.14,283.67c21.22-33.04,59.89-54.13,99.16-54.08c39.26,0.06,77.88,21.25,99,54.35
			c-27.95,20.97-63.67,30.41-98.6,29.24C98.77,312.02,64.64,300.71,34.14,283.67z"/>
	</g>
	<polygon class="st3" points="139.93,277.34 121.77,277.34 22.79,277.34 52.83,496.36 121.77,496.36 139.93,496.36 208.87,496.36 
		238.89,277.34 	"/>
	<polygon class="st4" points="211.81,508 49.88,508 41.39,473.53 220.29,473.53 	"/>
	<polygon class="st4" points="247.35,316.93 14.35,316.93 2.15,267.33 259.55,267.33 	"/>
</g>
</svg>
